<svg width="60" height="60" viewBox="0 0 60 60" fill="none" xmlns="http://www.w3.org/2000/svg">
<g id="eye-close-svgrepo-com 1" clip-path="url(#clip0_0_80)">
<g id="Group">
<path id="Vector" d="M25.325 39.605L23.355 46.955L18.5275 45.66L20.495 38.3125C17.5499 37.2263 14.8128 35.6434 12.4025 33.6325L7.02 39.0175L3.4825 35.48L8.8675 30.0975C5.82769 26.4569 3.78522 22.0894 2.94 17.4225L5.19 17.01C12.4131 22.2179 21.0952 25.014 30 25C39.26 25 47.8275 22.0375 54.81 17.01L57.06 17.42C56.2159 22.0875 54.1743 26.4559 51.135 30.0975L56.5175 35.48L52.98 39.0175L47.5975 33.6325C45.1872 35.6434 42.4501 37.2263 39.505 38.3125L41.4725 45.6625L36.645 46.955L34.675 39.605C31.5809 40.1352 28.4191 40.1352 25.325 39.605Z" fill="white"/>
</g>
</g>
<defs>
<clipPath id="clip0_0_80">
<rect width="60" height="60" fill="white"/>
</clipPath>
</defs>
</svg>
