<svg width="60" height="60" viewBox="0 0 60 60" fill="none" xmlns="http://www.w3.org/2000/svg">
<g id="eye-dropper-svgrepo-com 1" clip-path="url(#clip0_0_90)">
<path id="Vector" d="M5.94727 39.0527C4.54102 40.4589 3.75 42.3667 3.75 44.3566V49.6874L0 56.2499L3.75 59.9999L10.3125 56.2499H15.6434C17.632 56.2499 19.5398 55.4601 20.9461 54.0538L35.7867 39.2155L20.7867 24.2155L5.94727 39.0527ZM56.7047 3.29523C52.3137 -1.0993 45.1875 -1.0993 40.7965 3.29523L31.7625 12.3292L30.2273 10.7941C29.1211 9.68781 27.3387 9.70304 26.25 10.7941L21.4488 15.5952C20.3508 16.6933 20.3508 18.4745 21.4488 19.5726L40.4262 38.5499C41.5324 39.6562 43.3148 39.6409 44.4035 38.5499L49.2047 33.7499C50.3027 32.6519 50.3027 30.8706 49.2047 29.7726L47.6695 28.2374L56.7035 19.2034C61.0992 14.8112 61.0992 7.68859 56.7047 3.29523Z" fill="white"/>
</g>
<defs>
<clipPath id="clip0_0_90">
<rect width="60" height="60" fill="white"/>
</clipPath>
</defs>
</svg>
