<svg width="60" height="60" viewBox="0 0 60 60" fill="none" xmlns="http://www.w3.org/2000/svg">
<g id="eye-svgrepo-com 1">
<path id="Vector" d="M0 30C0.08 30.16 0.18 30.38 0.3 30.66C0.42 30.94 0.72 31.52 1.2 32.4C1.68 33.28 2.2 34.12 2.76 34.92C3.32 35.72 4.1 36.68 5.1 37.8C6.1 38.92 7.14 39.98 8.22 40.98C9.3 41.98 10.64 42.96 12.24 43.92C13.84 44.88 15.48 45.72 17.16 46.44C18.84 47.16 20.8 47.72 23.04 48.12C25.28 48.52 27.6 48.74 30 48.78C32.4 48.82 34.72 48.6 36.96 48.12C39.2 47.64 41.18 47.06 42.9 46.38C44.62 45.7 46.24 44.88 47.76 43.92C49.28 42.96 50.62 41.96 51.78 40.92C52.94 39.88 53.98 38.86 54.9 37.86C55.82 36.86 56.6 35.86 57.24 34.86C57.88 33.86 58.4 33.04 58.8 32.4C59.2 31.76 59.5 31.18 59.7 30.66L60 30C59.96 29.84 59.86 29.62 59.7 29.34C59.54 29.06 59.24 28.5 58.8 27.66C58.36 26.82 57.84 25.98 57.24 25.14C56.64 24.3 55.86 23.32 54.9 22.2C53.94 21.08 52.9 20.04 51.78 19.08C50.66 18.12 49.32 17.14 47.76 16.14C46.2 15.14 44.56 14.3 42.84 13.62C41.12 12.94 39.16 12.38 36.96 11.94C34.76 11.5 32.44 11.28 30 11.28C27.56 11.28 25.24 11.5 23.04 11.94C20.84 12.38 18.86 12.94 17.1 13.62C15.34 14.3 13.72 15.14 12.24 16.14C10.76 17.14 9.42 18.12 8.22 19.08C7.02 20.04 5.98 21.08 5.1 22.2C4.22 23.32 3.44 24.3 2.76 25.14C2.08 25.98 1.56 26.82 1.2 27.66C0.84 28.5 0.54 29.08 0.3 29.4L0 30ZM18.78 30C18.78 26.92 19.86 24.28 22.02 22.08C24.18 19.88 26.84 18.78 30 18.78C33.16 18.78 35.82 19.88 37.98 22.08C40.14 24.28 41.24 26.92 41.28 30C41.32 33.08 40.22 35.74 37.98 37.98C35.74 40.22 33.08 41.32 30 41.28C26.92 41.24 24.26 40.14 22.02 37.98C19.78 35.82 18.7 33.16 18.78 30ZM22.5 30C22.5 32.08 23.24 33.86 24.72 35.34C26.2 36.82 27.96 37.54 30 37.5C32.04 37.46 33.8 36.74 35.28 35.34C36.76 33.94 37.5 32.16 37.5 30C37.5 27.84 36.76 26.08 35.28 24.72C33.8 23.36 32.04 22.62 30 22.5C27.96 22.38 26.2 23.12 24.72 24.72L30 30H22.5Z" fill="white"/>
</g>
</svg>
