<svg width="60" height="60" viewBox="0 0 60 60" fill="none" xmlns="http://www.w3.org/2000/svg">
<g id="toilet-paper-solid-svgrepo-com 1">
<path id="Vector" d="M16.875 7.5C13.8574 7.5 11.4478 9.70459 9.90234 12.5977C8.35693 15.4907 7.5 19.2847 7.5 23.4375V52.5H37.5V36.3281C38.9648 38.1372 40.8838 39.375 43.125 39.375C46.1426 39.375 48.5522 37.1704 50.0977 34.2773C51.6431 31.3843 52.5 27.5903 52.5 23.4375C52.5 19.2847 51.6431 15.4907 50.0977 12.5977C48.5522 9.70459 46.1426 7.5 43.125 7.5H16.875ZM16.875 11.25H36.9727C36.6797 11.6748 36.4014 12.1289 36.1523 12.5977C34.6069 15.4907 33.75 19.2847 33.75 23.4375C33.75 23.7598 33.8013 24.0601 33.8086 24.375H33.75V48.75H11.25V23.4375C11.25 19.8267 12.0703 16.5527 13.2422 14.3555C14.4141 12.1582 15.7544 11.25 16.875 11.25ZM43.125 11.25C44.2456 11.25 45.5859 12.1582 46.7578 14.3555C47.9297 16.5527 48.75 19.8267 48.75 23.4375C48.75 27.0483 47.9297 30.3223 46.7578 32.5195C45.5859 34.7168 44.2456 35.625 43.125 35.625C42.0044 35.625 40.6641 34.7168 39.4922 32.5195C38.3203 30.3223 37.5 27.0483 37.5 23.4375C37.5 19.8267 38.3203 16.5527 39.4922 14.3555C40.6641 12.1582 42.0044 11.25 43.125 11.25ZM43.125 18.75C42.0923 18.75 41.25 20.8521 41.25 23.4375C41.25 26.0229 42.0923 28.125 43.125 28.125C44.1577 28.125 45 26.0229 45 23.4375C45 20.8521 44.1577 18.75 43.125 18.75ZM16.875 24.375C15.8423 24.375 15 25.2173 15 26.25C15 27.2827 15.8423 28.125 16.875 28.125C17.9077 28.125 18.75 27.2827 18.75 26.25C18.75 25.2173 17.9077 24.375 16.875 24.375ZM22.5 24.375C21.4673 24.375 20.625 25.2173 20.625 26.25C20.625 27.2827 21.4673 28.125 22.5 28.125C23.5327 28.125 24.375 27.2827 24.375 26.25C24.375 25.2173 23.5327 24.375 22.5 24.375ZM28.125 24.375C27.0923 24.375 26.25 25.2173 26.25 26.25C26.25 27.2827 27.0923 28.125 28.125 28.125C29.1577 28.125 30 27.2827 30 26.25C30 25.2173 29.1577 24.375 28.125 24.375Z" fill="white"/>
</g>
</svg>
