<svg width="60" height="60" viewBox="0 0 60 60" fill="none" xmlns="http://www.w3.org/2000/svg">
<g id="washing-hands-svgrepo-com 1" clip-path="url(#clip0_0_69)">
<g id="Group">
<path id="Vector" d="M58.0754 41.6094C55.6187 40.9727 52.6707 40.06 49.4339 38.1178C46.6343 36.438 43.2243 36.0853 40.8567 36.0853C39.1738 36.0853 37.4269 36.2679 35.8043 36.6135C34.5209 36.8868 32.6855 37.1647 30.7423 37.4588C23.9579 38.486 19.4459 39.279 18.5738 40.8796C18.3626 41.2673 18.3466 41.7036 18.5285 42.1081C19.2477 43.7068 22.0971 43.8532 26.362 43.8943C27.4275 43.9045 28.7588 43.9174 29.6359 44.0117C28.2635 44.6468 25.7081 45.5743 23.9986 45.5744C23.9986 45.5744 23.9982 45.5744 23.9979 45.5744C23.9393 45.5744 23.882 45.5732 23.8255 45.5709C21.5704 45.4767 18.6753 45.0624 15.6101 44.6237C11.9515 44.1003 8.16875 43.5591 5.30746 43.5591C3.99468 43.5591 -0.000289917 43.5591 -0.000289917 46.3169C-0.000289917 48.4807 1.95217 48.9666 3.54484 49.1052C3.09428 49.4803 2.74219 50.0814 2.74219 51.0669C2.74219 53.2489 6.8124 53.679 14.0067 54.2515C17.3763 54.5197 20.8608 54.797 23.3897 55.3671C26.2496 56.0118 29.179 56.3816 31.4266 56.3816C32.4531 56.3816 33.2896 56.3028 33.9128 56.1469C34.3692 56.0329 35.0239 55.8185 35.8527 55.5472C38.2507 54.7622 41.8746 53.5758 44.5388 53.5758C44.8575 53.5758 45.1557 53.5936 45.4253 53.6283C48.9986 54.0893 53.7351 55.4671 55.5828 56.3911C55.7472 56.4733 55.9222 56.515 56.1032 56.515H56.1037C56.6605 56.515 57.5169 56.2062 58.5218 53.5389C59.1202 51.9503 59.5998 49.9709 59.8376 48.1079C60.1782 45.4398 60.1489 42.1466 58.0754 41.6094Z" fill="white"/>
<path id="Vector_2" d="M10.7987 16.4964H40.2189C40.8579 16.4964 41.387 16.2315 41.6704 15.7697C41.9536 15.3078 41.9501 14.7161 41.6605 14.1463L37.0999 5.17702C36.6175 4.22839 35.4059 3.48529 34.3416 3.48529H16.6759C15.6118 3.48529 14.4002 4.22839 13.9178 5.17702L9.35705 14.1461C9.06742 14.7158 9.06364 15.3075 9.34717 15.7694C9.63041 16.2315 10.1594 16.4964 10.7987 16.4964Z" fill="white"/>
<path id="Vector_3" d="M22.7083 30.1231C22.7083 31.6673 23.9645 32.9236 25.5086 32.9236C27.0528 32.9236 28.3091 31.6673 28.3091 30.1231C28.3091 28.579 27.0528 27.3227 25.5086 27.3227C23.9645 27.3227 22.7083 28.579 22.7083 30.1231Z" fill="white"/>
<path id="Vector_4" d="M18.5385 24.4099C20.0826 24.4099 21.3388 23.1537 21.3388 21.6095C21.3388 20.0654 20.0826 18.8091 18.5385 18.8091C16.9943 18.8091 15.7381 20.0654 15.7381 21.6095C15.7381 23.1537 16.9943 24.4099 18.5385 24.4099Z" fill="white"/>
<path id="Vector_5" d="M32.4789 18.8091C30.9348 18.8091 29.6785 20.0654 29.6785 21.6095C29.6785 23.1537 30.9348 24.4099 32.4789 24.4099C34.0231 24.4099 35.2794 23.1537 35.2794 21.6095C35.2795 20.0654 34.0231 18.8091 32.4789 18.8091Z" fill="white"/>
<path id="Vector_6" d="M37.8724 32.9236C39.4165 32.9236 40.6728 31.6673 40.6728 30.1231C40.6728 28.579 39.4165 27.3227 37.8724 27.3227C36.3282 27.3227 35.0719 28.579 35.0719 30.1231C35.0719 31.6673 36.3282 32.9236 37.8724 32.9236Z" fill="white"/>
<path id="Vector_7" d="M13.145 27.3227C11.6009 27.3227 10.3446 28.579 10.3446 30.1231C10.3446 31.6673 11.6009 32.9236 13.145 32.9236C14.6892 32.9236 15.9453 31.6673 15.9453 30.1231C15.9453 28.579 14.6892 27.3227 13.145 27.3227Z" fill="white"/>
</g>
</g>
<defs>
<clipPath id="clip0_0_69">
<rect width="60" height="60" fill="white"/>
</clipPath>
</defs>
</svg>
